<svg width="164" height="50" viewBox="0 0 164 50" fill="none" xmlns="http://www.w3.org/2000/svg">
<path d="M13.4754 18.8862C13.4162 20.1446 12.3216 21.0369 11.8185 21.4469C9.73848 23.1415 7.05002 23.0354 6.06155 22.9477C6.19925 23.4677 6.41386 24.0762 6.75925 24.7138C7.66463 26.3877 8.96309 27.3385 9.72463 27.8046C8.62002 27.9223 7.5154 28.04 6.41002 28.1577C6.56309 28.6131 6.84463 29.2646 7.36925 29.9238C8.14463 30.8969 9.04925 31.38 9.55001 31.6015C9.29155 31.7908 8.71002 32.1592 7.89309 32.22C6.6254 32.3131 6.54155 33.36 6.34309 33.1915C6.60232 33.9331 6.20232 33.0654 6.84617 33.9862C7.11848 34.3762 8.37309 36.0938 11.4692 37.6946C12.7331 38.3485 14.1439 38.7777 16.9639 39.6369C20.2323 40.6323 20.8185 40.6169 22.3716 41.4031C24.2085 42.3323 24.0292 42.6777 25.86 43.6108C27.5769 44.4854 29.4362 45.4331 31.7039 45.1115C34.0277 44.7831 35.5831 43.2923 35.9777 42.9038C37.8885 41.0246 37.1977 39.7662 39.1177 38.2238C40.4216 37.1769 41.1846 37.4 42.6062 36.1046C43.5916 35.2069 44.1808 34.23 44.5254 33.5438C42.12 33.89 41.4716 33.7162 41.3854 33.4554C41.2592 33.0738 42.3654 32.5885 43.2169 31.5131C44.3077 30.1354 44.4946 28.4054 44.4377 27.01C41.2654 28.9915 39.1939 26.9977 40.1408 23.7908C40.6339 22.1208 39.3916 20.0131 39.2046 19.3285C39.4616 19.0992 39.8154 18.7492 40.1639 18.2692C41.2215 16.8131 41.4546 15.2354 41.5592 13.4131C41.6639 11.5969 41.6746 8.94615 41.21 5.64308C40.6954 5.75462 40.1708 5.9 39.64 6.08462C34.9546 7.71615 32.2054 11.6 30.8308 14.0315C28.3592 13.9431 25.8885 13.8546 23.4169 13.7669C22.9916 12.8154 22.4754 11.8046 21.8469 10.7646C20.0954 7.86692 18.0723 5.73539 16.3523 4.23077C15.8546 4.79846 15.1392 5.68846 14.4331 6.88C13.2731 8.83923 11.9616 11.0531 12.2523 13.5908C12.5192 15.9215 13.1246 17.4762 13.1246 17.4762C13.3192 17.9692 13.5008 18.3392 13.4754 18.8862Z" fill="#F9B233" stroke="#F9B233" stroke-width="4.92308" stroke-miterlimit="10"/>
<path d="M13.4754 18.8862C13.4162 20.1446 12.3215 21.0369 11.8185 21.4469C9.73847 23.1415 7.05001 23.0354 6.06154 22.9477C6.19924 23.4677 6.41385 24.0762 6.75924 24.7138C7.66462 26.3877 8.96308 27.3385 9.72462 27.8046C8.62001 27.9223 7.51539 28.04 6.41001 28.1577C6.56308 28.6131 6.84462 29.2646 7.36924 29.9238C8.14462 30.8969 9.04924 31.38 9.55001 31.6015C9.29154 31.7908 8.71001 32.1592 7.89308 32.22C6.62539 32.3131 5.73693 31.5946 5.53847 31.4254C5.84308 32.2331 6.91231 34.1015 6.84693 33.9862C6.61154 33.5731 8.37385 36.0938 11.4692 37.6946C12.7331 38.3485 14.1439 38.7777 16.9639 39.6369C20.2323 40.6323 20.8185 40.6169 22.3715 41.4031C24.2085 42.3323 24.0292 42.6777 25.86 43.6108C27.5769 44.4854 29.4362 45.4331 31.7039 45.1115C34.0277 44.7831 35.5831 43.2923 35.9777 42.9038C37.8885 41.0246 37.1977 39.7662 39.1177 38.2238C40.4215 37.1769 41.1846 37.4 42.6062 36.1046C43.5915 35.2069 44.1808 34.23 44.5254 33.5438C42.12 33.89 41.4715 33.7162 41.3854 33.4554C41.2592 33.0738 42.3654 32.5885 43.2169 31.5131C44.3077 30.1354 44.4946 28.4054 44.4377 27.01C41.2654 28.9915 39.1939 26.9977 40.1408 23.7908C40.6339 22.1208 39.3915 20.0131 39.2046 19.3285C39.4615 19.0992 39.8154 18.7492 40.1639 18.2692C41.2215 16.8131 41.4546 15.2354 41.5592 13.4131C41.6639 11.5969 41.6746 8.94615 41.21 5.64308C40.6954 5.75462 40.1708 5.9 39.64 6.08462C34.9546 7.71615 32.2054 11.6 30.8308 14.0315C28.3592 13.9431 25.8885 13.8546 23.4169 13.7669C22.9915 12.8154 22.4754 11.8046 21.8469 10.7646C20.0954 7.86692 18.0723 5.73539 16.3523 4.23077C15.8546 4.79846 15.1392 5.68846 14.4331 6.88C13.2731 8.83923 11.9615 11.0531 12.2523 13.5908C12.5192 15.9215 13.1246 17.4762 13.1246 17.4762C13.3192 17.9692 13.5008 18.3392 13.4754 18.8862Z" fill="#7591A0" stroke="#1D1D1B" stroke-width="2.23077" stroke-miterlimit="10"/>
<path d="M26.9946 41.0338C26.8715 41.5185 26.7185 42.4954 27.2269 43.6431C27.7223 44.7608 28.6015 45.4923 29.0877 45.8446C29.01 44.1054 28.9323 42.3662 28.8554 40.6262C28.2346 40.7623 27.6146 40.8985 26.9946 41.0338Z" fill="white" stroke="#1D1D1B" stroke-width="0.384615" stroke-miterlimit="10"/>
<path d="M37.6285 39.8146C37.8231 40.2731 38.1269 41.2123 37.83 42.4254C37.5408 43.6069 36.8246 44.4685 36.4208 44.8938C36.2131 43.1654 36.0054 41.4369 35.7977 39.7092C36.4077 39.7438 37.0177 39.7792 37.6285 39.8146Z" fill="white" stroke="#1D1D1B" stroke-width="0.384615" stroke-miterlimit="10"/>
<path d="M25.1192 38.4085C25.8862 39.4069 26.4323 40.13 26.8523 40.6915C27.0577 40.9654 27.2677 41.2477 27.6292 41.5415C27.7808 41.6638 28.2485 41.9438 29.1754 42.3C29.5685 42.4515 30.5538 42.8169 31.8285 42.6246C32.8546 42.47 33.6039 42.0238 34.0139 41.7323C34.1108 41.9377 34.2408 42.2915 34.56 42.3815C36.82 43.0169 37.99 40.7508 38.3431 39.9569C39.6815 36.9454 38.6892 35.4985 38.1123 34.0762C37.8269 33.3723 37.1423 32.2508 35.8262 31.3685C35.5123 31.1585 34.9592 30.8892 34.6662 30.2531C34.5069 29.9069 34.4762 29.5715 34.4762 29.3362" fill="#7591A0"/>
<path d="M25.3431 38.2369L27.01 40.3769C27.1508 40.5569 27.2792 40.7354 27.4169 40.89C27.4854 40.9685 27.5569 41.0415 27.6315 41.1123C27.6685 41.1477 27.7069 41.1815 27.7462 41.2146C27.7654 41.2315 27.7854 41.2477 27.8054 41.2638L27.8354 41.2885L27.8577 41.3054C27.9277 41.3554 28.0192 41.41 28.1108 41.4592C28.2031 41.51 28.2992 41.5577 28.3969 41.6046C28.5923 41.6977 28.7931 41.7846 28.9969 41.8685C29.2015 41.9508 29.4085 42.0331 29.6085 42.0977C29.81 42.1631 30.0146 42.2169 30.2223 42.2554C30.6369 42.3323 31.06 42.3569 31.4777 42.3192C32.3146 42.25 33.1269 41.9377 33.8123 41.4462L34.1554 41.2008L34.3338 41.5823C34.3785 41.6785 34.4123 41.7538 34.4485 41.82C34.4838 41.8862 34.5215 41.9385 34.5561 41.9746C34.5915 42.0115 34.62 42.0269 34.65 42.0377C34.6554 42.0392 34.6531 42.04 34.6654 42.0431L34.6961 42.05L34.7577 42.0646C34.7985 42.0738 34.8392 42.0862 34.88 42.0915C35.0438 42.1246 35.2077 42.1354 35.3692 42.1354C35.5315 42.1315 35.6908 42.1085 35.8469 42.0692C36.1592 41.9908 36.4508 41.8308 36.7138 41.6223C36.9769 41.4123 37.2092 41.1515 37.4138 40.8662C37.6185 40.58 37.7946 40.2685 37.9461 39.9446C38.0231 39.7838 38.0861 39.6108 38.1561 39.4431C38.23 39.2762 38.28 39.1031 38.3392 38.9323L38.3831 38.8038C38.3969 38.7608 38.4061 38.7177 38.4185 38.6746L38.4877 38.4154C38.5138 38.3292 38.5254 38.2415 38.5431 38.1546C38.5585 38.0677 38.5777 37.9808 38.5908 37.8931L38.6192 37.6308C38.6231 37.5869 38.6308 37.5431 38.6323 37.5L38.6361 37.3692C38.6369 37.2823 38.6454 37.1946 38.6408 37.1077L38.6292 36.8469C38.6 36.5 38.5323 36.1562 38.4285 35.8169C38.3246 35.4769 38.1854 35.1415 38.0377 34.7954C37.9638 34.6223 37.8885 34.4462 37.8154 34.2654L37.7631 34.1392C37.7469 34.0992 37.7292 34.0592 37.7108 34.0192C37.6754 33.9392 37.6354 33.8608 37.5954 33.7815C37.4308 33.4685 37.2354 33.1677 37.0131 32.8869C36.7915 32.6054 36.5454 32.3423 36.2761 32.1031C36.2077 32.0446 36.1408 31.9838 36.0708 31.9277C36 31.8723 35.9308 31.8146 35.8577 31.7608C35.7854 31.7077 35.7123 31.6515 35.6408 31.6008L35.4108 31.4408C35.25 31.3269 35.0861 31.1969 34.9431 31.0423C34.7985 30.89 34.6777 30.7108 34.59 30.52C34.4146 30.1369 34.3854 29.7131 34.4785 29.3369C34.5692 29.7138 34.7115 30.0546 34.9246 30.3223C35.1338 30.5938 35.4054 30.7831 35.7185 30.9608C35.7969 31.0069 35.8792 31.0508 35.9669 31.1054C36.0523 31.16 36.1323 31.2146 36.2146 31.2692C36.2961 31.3254 36.3738 31.3862 36.4531 31.4446C36.5315 31.5046 36.6069 31.5685 36.6846 31.6308C36.9885 31.8846 37.2692 32.1662 37.5246 32.4715C37.78 32.7762 38.0092 33.1046 38.2023 33.4569C38.25 33.5454 38.2969 33.6346 38.34 33.7262C38.3623 33.7715 38.3838 33.8177 38.4038 33.8646L38.4623 33.9992C38.5338 34.1677 38.6108 34.3377 38.6885 34.5108C38.8446 34.8562 39.0031 35.2169 39.1223 35.5992C39.2438 35.9808 39.3277 36.3815 39.3646 36.7877C39.4015 37.1946 39.3761 37.6015 39.3254 38.0015C39.31 38.1008 39.29 38.1992 39.2715 38.2977C39.2515 38.3962 39.2377 38.4962 39.2092 38.5908L39.1331 38.8792C39.12 38.9269 39.1085 38.9762 39.0938 39.0231L39.0461 39.1631C38.9815 39.3492 38.9231 39.5392 38.8438 39.7177C38.7669 39.8985 38.6992 40.08 38.6115 40.26C38.4408 40.6185 38.2415 40.9669 38.0038 41.2938C37.7661 41.6208 37.49 41.9292 37.1608 42.1892C36.8308 42.4469 36.4454 42.6585 36.0223 42.7623C35.8115 42.8146 35.5954 42.8438 35.3792 42.8477C35.1638 42.8477 34.9492 42.83 34.7423 42.7877C34.69 42.78 34.6392 42.7646 34.5885 42.7531L34.5123 42.7338L34.4738 42.7246C34.4623 42.7223 34.4385 42.7138 34.4215 42.7077C34.2723 42.6577 34.1392 42.5646 34.0454 42.4638C33.9492 42.3631 33.8815 42.2562 33.8277 42.1562C33.7738 42.0562 33.7323 41.9585 33.6969 41.8831L34.2185 42.0192C33.4338 42.5754 32.4985 42.9308 31.5338 43.0046C31.0523 43.0446 30.5654 43.0131 30.0931 42.9223C29.8569 42.8762 29.6238 42.8138 29.3969 42.7385C29.1677 42.6623 28.9554 42.5762 28.7415 42.4885C28.5277 42.4 28.3154 42.3054 28.1054 42.2C28 42.1477 27.8954 42.0931 27.79 42.0331C27.6846 41.9731 27.5815 41.9115 27.4692 41.8292L27.4246 41.7946L27.3892 41.7646C27.3654 41.7454 27.3423 41.7246 27.3192 41.7046C27.2731 41.6638 27.2277 41.6223 27.1838 41.5792C27.0954 41.4931 27.0108 41.4031 26.9323 41.31C26.7731 41.1238 26.64 40.9331 26.5054 40.7554L24.8961 38.5808L25.3431 38.2369Z" fill="#1D1D1B"/>
<path d="M17.8523 32.7838C17.5839 33.0523 16.6823 33.3785 16.4562 34.6662C16.2154 36.04 16.6962 37.1023 16.8631 37.4346C15.8646 37.16 14.9992 36.8685 14.2877 36.6038C13.9085 36.4631 12.9015 36.0808 11.6285 35.4738C10.7239 35.0423 10.0662 34.6792 9.54308 34.3892C8.74078 33.9446 7.06231 32.6677 5.90231 31.9085C5.98231 32.1023 6.50616 33.1862 6.68308 33.4908C6.78308 33.6623 7.46385 34.2415 8.27385 34.9677C9.54154 36.1046 11.4069 37.1223 11.8531 37.3223C13.0808 37.8708 13.5815 38.3415 15.8231 38.9062C16.9739 39.1962 17.2277 39.2185 20.0123 39.9862C20.5554 40.1362 21.8454 40.4777 22.56 40.8538C23.2692 41.2262 23.7846 41.5654 23.9246 41.6592C24.5785 42.0946 23.9246 41.6592 25.32 42.6815C26.0346 43.2054 26.8662 43.6654 26.9277 43.58C26.9615 43.5338 26.7177 43.0538 26.6323 42.68C26.5415 42.2815 26.5923 42.5246 26.6854 41.9377C26.7169 41.74 26.63 41.11 26.6554 41.0038C25.7754 41.0038 24.9808 40.5338 24.0723 40.2585C21.2385 39.3992 20.2939 38.7962 19.9339 38.5938C19.0377 38.0885 19.2669 38.1008 18.9131 37.6815C18.1985 36.8354 18.4039 34.4246 18.4439 33.4054C18.4862 32.3231 17.7239 33.19 17.8523 32.7838Z" fill="#474B4C"/>
<path d="M27.02 40.9146C26.1031 40.1908 25.1908 38.8423 24.7069 37.6431C24.2392 36.4846 23.8692 35.5677 23.1246 34.7477C22.6285 34.2015 21.5754 33.4754 19.9569 32.8123C19.5523 32.6462 19.0808 32.7515 18.7969 33.0854C18.7177 33.1785 18.6554 33.3538 18.5954 33.5631C18.4923 33.9238 18.4438 34.2985 18.4377 34.6746C18.4262 35.3115 18.3092 35.5854 18.5215 36.5385C18.67 37.2038 18.8777 38.1392 19.8631 38.8192C20.6869 39.3877 27.4777 41.2762 27.02 40.9146Z" fill="white"/>
<path d="M26.9431 41.0131C26.5246 40.6931 26.1469 40.3262 25.8008 39.9323C25.4523 39.5392 25.1439 39.1123 24.8654 38.6638C24.7254 38.4392 24.5992 38.2062 24.48 37.9677L24.3931 37.7869C24.3646 37.7277 24.34 37.67 24.3139 37.6115L24.1569 37.2638C23.95 36.8015 23.7423 36.3492 23.4908 35.9377C23.3646 35.7323 23.2315 35.5354 23.0846 35.35C23.0123 35.2569 22.9369 35.1654 22.8585 35.0777C22.8192 35.0315 22.7808 34.9938 22.7431 34.9531C22.7039 34.9131 22.6623 34.8738 22.6208 34.8338C22.4508 34.6769 22.2615 34.5292 22.0639 34.39C21.8669 34.2492 21.66 34.1169 21.4485 33.9915C21.0262 33.7385 20.5808 33.5138 20.1269 33.3069L19.9554 33.2315L19.8692 33.1938C19.8423 33.1823 19.8069 33.1662 19.7923 33.1615C19.7177 33.1323 19.6369 33.1146 19.5554 33.1146C19.4746 33.1146 19.3931 33.1277 19.3169 33.1562C19.2415 33.1854 19.1731 33.2285 19.1139 33.2823L19.0731 33.3231C19.0731 33.3223 19.0654 33.3315 19.0569 33.3454C19.04 33.3746 19.0192 33.4192 19.0008 33.4685C18.9631 33.5685 18.9262 33.6877 18.8977 33.7977C18.84 34.0231 18.8046 34.2569 18.7869 34.4938C18.7831 34.5531 18.78 34.6123 18.7777 34.6723C18.7754 34.7377 18.7731 34.8077 18.7685 34.8738C18.7608 35.0085 18.7477 35.1385 18.7385 35.2615C18.7177 35.5069 18.7162 35.7285 18.7446 35.9662C18.7708 36.2023 18.8177 36.4415 18.8685 36.6892C18.9185 36.9323 18.9792 37.1631 19.0623 37.3831C19.2246 37.8238 19.4939 38.2115 19.8577 38.5138L19.9969 38.6238C20.0308 38.6492 20.0808 38.6792 20.1323 38.7069C20.2354 38.7623 20.3485 38.8146 20.4623 38.8654C20.6908 38.9662 20.9269 39.06 21.1639 39.1508C21.6385 39.3315 22.12 39.5023 22.6054 39.6615C23.09 39.8238 23.5785 39.9731 24.07 40.11L24.8092 40.3108C24.9331 40.3408 25.0546 40.3823 25.1785 40.4115C25.3023 40.4415 25.4354 40.4392 25.5692 40.4292H25.5708H25.5715C25.5754 40.4131 25.5362 40.5669 25.5531 40.5023L25.5562 40.5031L25.5623 40.5054L25.5739 40.5092L25.5977 40.5177L25.6454 40.5338L25.7408 40.5646L25.9323 40.6223C26.0608 40.6585 26.1892 40.6931 26.3185 40.7238C26.4477 40.7562 26.5777 40.7815 26.7062 40.8062C26.7708 40.8177 26.8354 40.8269 26.8977 40.8338C26.9285 40.8369 26.9592 40.8392 26.9831 40.8385C26.9885 40.8385 26.9931 40.8377 26.9954 40.8377C26.9962 40.8385 26.9992 40.8338 26.9723 40.8462C26.9639 40.8515 26.96 40.8523 26.9431 40.8708C26.9362 40.8785 26.9308 40.8877 26.9269 40.8969C26.9215 40.9077 26.9177 40.92 26.9169 40.9331C26.9146 40.98 26.9308 40.9977 26.9331 41.0038L26.9392 41.0115L26.9423 41.0146L26.9431 41.0131ZM27.0977 40.8169L27.1154 40.8331L27.1269 40.8454C27.13 40.8492 27.1346 40.8538 27.1408 40.8631C27.1485 40.8762 27.1692 40.9015 27.1654 40.9569C27.1639 40.9715 27.16 40.9862 27.1546 40.9992C27.1492 41.01 27.1431 41.0208 27.1346 41.03C27.1154 41.0523 27.1069 41.0546 27.0954 41.0623C27.0539 41.0831 27.0392 41.08 27.0239 41.0831C27.0085 41.0846 26.9977 41.0846 26.9854 41.0846C26.9423 41.0838 26.9062 41.0792 26.8708 41.0738C26.8 41.0638 26.7331 41.05 26.6662 41.0377C26.5323 41.0131 26.4008 40.9823 26.2685 40.9554L25.8739 40.8723L25.6762 40.8338L25.5769 40.8154L25.5269 40.8069L25.5023 40.8031L25.49 40.8008L25.4839 40.8L25.4808 40.7992H25.48C25.4962 40.7338 25.4569 40.8877 25.4608 40.8715L25.46 40.8708L25.4585 40.87C25.3446 40.7962 25.2292 40.73 25.1062 40.6938C24.9831 40.6577 24.8569 40.6331 24.7339 40.5954L23.9939 40.3854L22.5139 39.9638C22.0208 39.8215 21.5269 39.68 21.0354 39.5246C20.7892 39.4469 20.5439 39.3654 20.2985 39.2746C20.1754 39.2285 20.0531 39.1808 19.9269 39.1223C19.8639 39.0923 19.8 39.0615 19.7285 39.0154L19.5592 38.8969C19.1139 38.5708 18.75 38.1108 18.5331 37.6C18.4223 37.3462 18.34 37.0838 18.2746 36.8285C18.2092 36.5785 18.1446 36.3177 18.1077 36.0454C18.0662 35.7754 18.0592 35.4823 18.0746 35.2177L18.0939 34.8392C18.0962 34.7777 18.0969 34.72 18.0977 34.6569C18.0985 34.5885 18.1 34.52 18.1039 34.4515C18.1169 34.1777 18.1523 33.9023 18.2146 33.63C18.2469 33.4923 18.2808 33.3646 18.3285 33.2231C18.3531 33.1523 18.3808 33.0785 18.4254 32.9946C18.4485 32.9523 18.4754 32.9069 18.5154 32.8569C18.5477 32.8192 18.5739 32.7892 18.6054 32.7569C18.73 32.6331 18.8785 32.5331 19.04 32.4646C19.2015 32.3969 19.3754 32.3608 19.55 32.3562C19.7246 32.3515 19.9 32.3823 20.0646 32.4415C20.1108 32.4577 20.1339 32.4685 20.1662 32.4808L20.2569 32.5177L20.4385 32.5923C20.9208 32.7977 21.3985 33.0215 21.8592 33.2846C22.3215 33.5477 22.7692 33.8423 23.1854 34.2177C23.2369 34.2662 23.2885 34.3146 23.3392 34.3654C23.39 34.4177 23.4408 34.4708 23.4839 34.5231C23.5754 34.6262 23.6615 34.7338 23.7454 34.8431C23.91 35.0638 24.0577 35.2962 24.1877 35.5338C24.4485 36.01 24.6492 36.4992 24.8339 36.9815L25.0954 37.6977C25.1831 37.9269 25.28 38.1546 25.3854 38.38C25.5977 38.8292 25.8439 39.2669 26.1215 39.6838C26.3985 40.1015 26.7177 40.4954 27.0977 40.8169Z" fill="#1D1D1B"/>
<path d="M22.7492 37.7262C22.6723 37.6308 22.59 37.5438 22.5077 37.4562L22.2569 37.1946C22.1731 37.1069 22.0892 37.0192 22.0085 36.9262C21.9269 36.8331 21.8485 36.7369 21.7746 36.6246L21.9708 36.6969C21.9239 36.7238 21.8662 36.7769 21.8092 36.8331C21.7516 36.89 21.6946 36.9554 21.6339 37.02C21.5731 37.0854 21.5108 37.1538 21.4377 37.2208C21.3631 37.2869 21.2854 37.3577 21.1569 37.4131L21.0177 37.4723L20.9123 37.3538C20.7592 37.1823 20.6931 36.9946 20.6423 36.8223C20.5923 36.6485 20.56 36.4808 20.5308 36.3169C20.4708 35.9908 20.4162 35.6769 20.3069 35.3992L20.6262 35.4885C20.5808 35.5192 20.5239 35.5646 20.47 35.6062L20.3054 35.7377L19.9739 36.0062C19.8631 36.0962 19.75 36.1846 19.6369 36.2731C19.5208 36.3608 19.4116 36.4477 19.2785 36.5331L19.2231 36.5685L19.1685 36.5515C19.1254 36.5385 19.0939 36.5138 19.0723 36.4908C19.0508 36.4677 19.0362 36.4454 19.0239 36.4238C19.0008 36.3815 18.9877 36.3431 18.9769 36.3054C18.9554 36.2308 18.9454 36.16 18.9362 36.09C18.9185 35.95 18.91 35.8138 18.9016 35.6777C18.8939 35.5415 18.8885 35.4069 18.8739 35.2731C18.8662 35.2069 18.8585 35.14 18.8431 35.0754C18.8354 35.0431 18.8262 35.0115 18.8123 34.9815C18.7985 34.9531 18.78 34.9223 18.7477 34.9092C18.7823 34.9154 18.81 34.9423 18.8316 34.97C18.8523 34.9985 18.8692 35.03 18.8839 35.0615C18.9123 35.1254 18.9354 35.1915 18.9539 35.2577C18.9916 35.3908 19.0216 35.5246 19.0508 35.6577C19.0785 35.7908 19.1062 35.9231 19.1408 36.05C19.1577 36.1131 19.1777 36.1746 19.2008 36.2285C19.2123 36.2546 19.2246 36.2792 19.2369 36.2954C19.2485 36.3123 19.2616 36.3123 19.24 36.3008L19.13 36.32C19.2254 36.2354 19.33 36.1315 19.4292 36.0331L19.7339 35.7331C19.8362 35.6331 19.9385 35.5331 20.0439 35.4346L20.2039 35.2869C20.2592 35.2369 20.3123 35.19 20.3816 35.1369L20.5862 34.9808L20.7008 35.2269C20.7785 35.3931 20.8331 35.5631 20.8762 35.7315C20.9208 35.9 20.9523 36.0669 20.9839 36.2292C21.0162 36.3915 21.0446 36.55 21.0846 36.6954C21.1246 36.84 21.1762 36.9731 21.2446 37.0523L20.9992 36.9938C21.0362 36.9808 21.1016 36.9415 21.1631 36.8931C21.2254 36.8438 21.2916 36.7885 21.3585 36.73C21.4262 36.6715 21.4969 36.6123 21.5754 36.5538C21.6546 36.4962 21.74 36.4377 21.8585 36.3969L22.0008 36.3477L22.0554 36.4685C22.0992 36.5662 22.16 36.6677 22.22 36.7692L22.4085 37.0762C22.4723 37.1792 22.5362 37.2831 22.5946 37.3908C22.6516 37.5008 22.7077 37.6108 22.7492 37.7262Z" fill="#1D1D1B"/>
<path d="M14.8092 35.4938C14.8469 35.2292 14.9246 34.9708 15.0323 34.7231C15.1408 34.4754 15.2777 34.2369 15.4446 34.0185C15.7715 33.5777 16.2192 33.2092 16.7185 32.9615C16.8431 32.9015 16.9685 32.8438 17.0954 32.7946C17.2223 32.7469 17.3492 32.7008 17.4754 32.66L17.6639 32.6023L17.7569 32.5746C17.7854 32.5662 17.8139 32.5577 17.8423 32.55C17.9569 32.5169 18.0738 32.4777 18.2031 32.4392C18.3315 32.4 18.4731 32.3654 18.6154 32.3469C18.7577 32.3285 18.9 32.3223 19.0385 32.3315C19.3154 32.3477 19.5785 32.4038 19.8346 32.5C19.5746 32.5831 19.32 32.6408 19.0831 32.7177C18.9638 32.7538 18.8523 32.7962 18.7446 32.8415C18.6369 32.8877 18.5346 32.9392 18.4239 32.9962C18.3139 33.0538 18.1923 33.1138 18.0638 33.1685C18.0315 33.1823 17.9992 33.1954 17.9662 33.2077L17.8754 33.2408L17.6969 33.3069C17.46 33.3923 17.2331 33.4808 17.0162 33.58C16.5831 33.7785 16.1885 34.0385 15.8215 34.3631C15.4539 34.6862 15.1292 35.0685 14.8092 35.4938Z" fill="#1D1D1B"/>
<path d="M40.0411 28.7439C40.208 28.9431 40.4418 29.0169 40.6711 29.0423C40.9041 29.0692 41.1357 29.0477 41.3864 29.0246C41.4188 29.0223 41.4518 29.02 41.4888 29.0185C41.5072 29.0177 41.5288 29.0177 41.5518 29.0192L41.5926 29.0231L41.6118 29.0223C41.6626 29.0231 41.7126 29.0177 41.7618 29.0123C41.8603 29 41.9549 28.9739 42.0457 28.9362C42.1364 28.9008 42.2241 28.8539 42.3065 28.7985C42.3472 28.77 42.3865 28.7415 42.4288 28.7085C42.4672 28.6777 42.5049 28.6454 42.5403 28.6108L43.1734 28L43.218 28.9608C43.2218 29.0431 43.2272 29.1254 43.2295 29.2077C43.2295 29.2908 43.2311 29.3731 43.2295 29.4569C43.2257 29.6239 43.2203 29.7923 43.1988 29.9615C43.1634 30.3008 43.0895 30.6477 42.9541 30.9931C42.888 31.1662 42.798 31.3362 42.6918 31.5008C42.598 31.6431 42.5018 31.7839 42.3911 31.9192C42.1718 32.1915 41.9272 32.4385 41.6811 32.6523C41.558 32.76 41.4365 32.8662 41.3126 32.9654C41.2749 32.9954 41.2688 33.0023 41.2488 33.0185C41.2295 33.0323 41.2188 33.0477 41.2026 33.0615C41.188 33.0762 41.178 33.0908 41.1649 33.1046C41.1564 33.1192 41.1434 33.1323 41.1364 33.1469C41.1041 33.2031 41.0811 33.2539 41.0765 33.3208C41.0741 33.3539 41.0749 33.39 41.0826 33.4285C41.0888 33.4669 41.0995 33.5085 41.1157 33.55C41.178 33.7177 41.3303 33.89 41.4818 33.9654C41.5188 33.9839 41.5549 34 41.5895 34.0092C41.6057 34.0123 41.6234 34.0177 41.6388 34.0185L41.6511 34.02L41.6541 34.0208L41.6626 34.02L41.6795 34.0185L41.748 34.0139C41.838 34.0085 41.9249 34.0115 42.0034 34.0139L42.1911 34.0192L42.8003 34.0369L42.5965 34.4715C42.5088 34.6577 42.4018 34.8354 42.2711 34.9962C42.2049 35.0762 42.1341 35.1515 42.0572 35.2215C41.9834 35.2869 41.9157 35.3423 41.8441 35.4031C41.7018 35.5208 41.5572 35.6369 41.4049 35.7454C41.3295 35.8 41.2511 35.8515 41.1695 35.9C41.1288 35.9239 41.0872 35.9469 41.0441 35.9669C41.0011 35.9854 40.9534 36.0069 40.9057 35.9992C40.9503 35.9869 40.9788 35.95 41.0095 35.9192C41.0395 35.8862 41.068 35.8515 41.0949 35.8154C41.1495 35.7439 41.1995 35.6685 41.2511 35.5946C41.3526 35.4446 41.4518 35.2939 41.5511 35.1415C41.5995 35.0669 41.6526 34.9877 41.6965 34.9154C41.7365 34.8469 41.7718 34.7762 41.8018 34.7023C41.8626 34.5562 41.9072 34.4023 41.9365 34.2462L42.3411 34.6992C42.2265 34.7323 42.1426 34.7446 42.0657 34.7608C41.9888 34.7754 41.9211 34.7915 41.8565 34.8077L41.8095 34.8208L41.798 34.8239L41.7918 34.8254L41.7803 34.8277L41.7349 34.8362C41.6734 34.8485 41.6126 34.8515 41.5511 34.8546C41.4295 34.8562 41.3126 34.84 41.2011 34.8108C40.7611 34.6846 40.4234 34.4015 40.2018 34.0169C40.0911 33.8246 40.0164 33.5969 40.0026 33.3508C39.9872 33.1054 40.0403 32.8446 40.1549 32.6254C40.1818 32.5692 40.2149 32.52 40.2464 32.4677C40.2811 32.42 40.3149 32.3708 40.3526 32.3269C40.3903 32.2846 40.428 32.2385 40.468 32.2015C40.5057 32.1654 40.5549 32.1185 40.578 32.0985C40.6918 31.9969 40.8057 31.8985 40.9141 31.7985C41.1311 31.5962 41.3318 31.4046 41.5072 31.1946C41.5941 31.0892 41.6841 30.9792 41.7664 30.8654C41.8357 30.7723 41.8949 30.6677 41.9526 30.5554C42.0095 30.4431 42.0588 30.3208 42.1011 30.1923C42.1457 30.0654 42.1849 29.9315 42.2172 29.7939C42.2503 29.6569 42.2795 29.5154 42.3057 29.3723C42.3311 29.2292 42.3511 29.0831 42.3718 28.9354L43.0495 29.2854C42.9849 29.3262 42.9188 29.3639 42.8511 29.3985C42.7872 29.4308 42.7165 29.4631 42.6449 29.49C42.5018 29.5439 42.3526 29.5831 42.1995 29.6039C42.0464 29.6223 41.8895 29.6215 41.7372 29.5985C41.6611 29.5869 41.5865 29.5685 41.5141 29.5454L41.4872 29.5369C41.4803 29.5346 41.4834 29.5346 41.4811 29.5331C41.4734 29.53 41.4641 29.5269 41.4511 29.5246C41.4265 29.5192 41.3965 29.5139 41.3657 29.5085C41.1172 29.4669 40.8441 29.4154 40.5949 29.3015C40.4711 29.2439 40.3503 29.1723 40.2518 29.0754C40.1526 28.9823 40.0772 28.8669 40.0411 28.7439Z" fill="white"/>
<path d="M20.6192 14.0092C20.0138 14.2446 19.4892 14.4669 19.0131 14.7385C18.7761 14.8731 18.5523 15.0146 18.3392 15.1669C18.1292 15.3223 17.9285 15.4862 17.7385 15.6615C17.6877 15.7015 17.6454 15.7508 17.5992 15.7962C17.5538 15.8415 17.5054 15.8854 17.4615 15.9323C17.3769 16.03 17.2831 16.12 17.2031 16.2238C17.0308 16.4208 16.8761 16.6369 16.7215 16.8631C16.6431 16.9754 16.5723 17.0946 16.4946 17.2131C16.4585 17.2738 16.4238 17.3354 16.3861 17.3969L16.2785 17.5862C16.1331 17.8423 16 18.11 15.85 18.4023C15.7892 18.2492 15.7515 18.0892 15.7269 17.9285C15.7131 17.8477 15.7077 17.7669 15.6992 17.6854C15.6946 17.6046 15.6923 17.5223 15.6915 17.4408C15.6938 17.1138 15.7423 16.7838 15.8385 16.4646C15.9331 16.1454 16.0685 15.8323 16.2523 15.5454C16.3369 15.3977 16.4461 15.2654 16.5492 15.1292C16.6031 15.0631 16.6638 15.0023 16.7215 14.9392C16.7815 14.8785 16.8377 14.8131 16.9031 14.7585C17.1546 14.5262 17.4361 14.3292 17.7361 14.1692C18.0385 14.0131 18.36 13.8985 18.6877 13.83C19.0154 13.7608 19.3492 13.7408 19.6754 13.7662C20.0023 13.7946 20.3238 13.8638 20.6192 14.0092Z" fill="#474B4C"/>
<path d="M37.4992 16.5754C37.0231 16.09 36.5708 15.7092 36.0854 15.4138C35.8454 15.2646 35.5985 15.14 35.3461 15.0315L35.2523 14.99C35.2208 14.9762 35.1877 14.9654 35.1561 14.9531C35.0908 14.9308 35.0292 14.9015 34.9638 14.88C34.8977 14.86 34.8331 14.8377 34.7677 14.8169L34.6708 14.7831L34.5708 14.7577L34.3715 14.7023C34.3046 14.6854 34.2361 14.6731 34.1692 14.6569C34.0354 14.6208 33.8954 14.6054 33.7577 14.5762C33.4785 14.5362 33.1938 14.4969 32.9 14.4777C32.6062 14.4577 32.3046 14.4423 31.9931 14.4377C31.6808 14.43 31.3623 14.4338 31.0192 14.4277C31.14 14.3054 31.2738 14.1985 31.4146 14.1046C31.5546 14.0085 31.7023 13.9262 31.8546 13.8492C32.1592 13.7 32.4838 13.5869 32.82 13.5123C33.1561 13.4346 33.5061 13.4092 33.8577 13.4123C34.0338 13.4231 34.2108 13.4285 34.3861 13.4608C34.4738 13.4754 34.5615 13.4885 34.6492 13.5062L34.9085 13.5738L35.0377 13.61L35.1638 13.6562L35.4146 13.7523C35.4969 13.7877 35.5769 13.8285 35.6569 13.8692C35.6969 13.89 35.7369 13.9092 35.7761 13.9308L35.8915 14.0008C36.1985 14.1869 36.4823 14.4154 36.7177 14.6838C36.9531 14.9523 37.1492 15.25 37.2846 15.5715C37.4177 15.8923 37.5054 16.2308 37.4992 16.5754Z" fill="#474B4C"/>
<path d="M26.6685 29.5054C27.1561 29.0323 27.54 28.5815 27.8377 28.0977C27.9877 27.8585 28.1138 27.6123 28.2238 27.3608L28.2661 27.2669C28.28 27.2354 28.2908 27.2031 28.3031 27.1708C28.3261 27.1062 28.3554 27.0446 28.3769 26.9792C28.3977 26.9138 28.42 26.8485 28.4415 26.7838L28.4761 26.6869L28.5023 26.5869L28.5585 26.3885C28.5761 26.3215 28.5885 26.2531 28.6046 26.1862C28.6415 26.0523 28.6577 25.9131 28.6877 25.7754C28.7292 25.4969 28.77 25.2123 28.7908 24.9177C28.8123 24.6238 28.8292 24.3223 28.8354 24.0108C28.8446 23.6985 28.8423 23.3808 28.8508 23.0377C28.9723 23.1592 29.0785 23.2938 29.1715 23.4346C29.2669 23.5754 29.3485 23.7231 29.4246 23.8754C29.5723 24.1808 29.6831 24.5062 29.7561 24.8423C29.8323 25.1792 29.8561 25.5285 29.8508 25.88C29.8392 26.0554 29.8331 26.2331 29.7992 26.4077C29.7838 26.4954 29.7708 26.5831 29.7523 26.67L29.6831 26.9292L29.6461 27.0577L29.5992 27.1838L29.5015 27.4338C29.4661 27.5162 29.4246 27.5962 29.3838 27.6762C29.3631 27.7162 29.3438 27.7562 29.3215 27.7954L29.2508 27.9108C29.0631 28.2169 28.8331 28.4992 28.5631 28.7331C28.2938 28.9669 27.9946 29.1615 27.6723 29.2954C27.3515 29.4269 27.0123 29.5131 26.6685 29.5054Z" fill="#474B4C"/>
<path d="M33.9931 28.5269C33.7023 28.6377 33.3738 28.6331 33.06 28.5615C32.9808 28.5438 32.9054 28.5169 32.8269 28.4923C32.7515 28.4631 32.6746 28.4323 32.6023 28.3954C32.4546 28.3246 32.3146 28.2362 32.1846 28.1369C31.9246 27.9377 31.6992 27.6946 31.5223 27.4285C31.4731 27.3638 31.4361 27.2946 31.3954 27.2262C31.3554 27.1577 31.3169 27.0877 31.2785 27.0185C31.2146 26.8754 31.1431 26.7323 31.0946 26.5854C30.8854 25.9969 30.8069 25.3823 30.8508 24.7862C30.87 24.4877 30.9215 24.1931 31.0015 23.9062C31.0423 23.7623 31.09 23.6208 31.1485 23.4823C31.2061 23.3438 31.2715 23.2069 31.3561 23.0769C31.5523 23.6569 31.6738 24.1892 31.8161 24.7046C31.9492 25.2185 32.0885 25.7069 32.2523 26.1685C32.27 26.2277 32.2938 26.2838 32.3161 26.3392C32.3377 26.3962 32.36 26.4523 32.3808 26.5092C32.4046 26.5646 32.4308 26.6177 32.4538 26.6738C32.4777 26.7292 32.4992 26.7862 32.5269 26.8377C32.6261 27.0562 32.7415 27.26 32.8708 27.4585C33.1315 27.8562 33.4654 28.2162 33.9931 28.5269Z" fill="#474B4C"/>
<path d="M34.7592 40.9569C34.5862 41.2885 34.3338 41.5715 34.0485 41.8177C33.7615 42.0631 33.4315 42.2638 33.0769 42.4177C32.3654 42.7215 31.5569 42.8177 30.7854 42.7077C30.0123 42.5946 29.2746 42.2908 28.67 41.8362C28.3662 41.6108 28.0931 41.3508 27.8569 41.0638C27.8 40.9892 27.7415 40.9177 27.6877 40.8423C27.6362 40.7646 27.5815 40.6908 27.5346 40.61C27.4377 40.4523 27.3523 40.2862 27.2877 40.1108C27.6192 40.2808 27.9262 40.4446 28.2354 40.5923C28.5423 40.7415 28.8477 40.8738 29.1485 40.9938C29.7515 41.2354 30.3508 41.3985 30.9569 41.4892C31.5654 41.5769 32.1769 41.5762 32.8038 41.4915C33.1185 41.45 33.4354 41.38 33.7585 41.29C33.9208 41.2462 34.0831 41.1938 34.25 41.1392C34.4161 41.0831 34.5831 41.0208 34.7592 40.9569Z" fill="#474B4C"/>
<path d="M36.1439 23.2638C36.4239 23.2962 36.6831 23.4115 36.92 23.5638C37.1546 23.7185 37.3646 23.9192 37.5369 24.1508C37.7108 24.3823 37.8439 24.6454 37.9346 24.9215L37.9692 25.0254L37.9962 25.1308C38.0131 25.2008 38.0323 25.2715 38.0431 25.3431C38.0623 25.4862 38.0892 25.63 38.0892 25.7738L38.0931 25.99L38.0777 26.2046C38.0692 26.3477 38.0377 26.4869 38.0115 26.6262C37.9439 26.9008 37.8515 27.1662 37.7215 27.41C37.5923 27.6538 37.4346 27.8792 37.25 28.08C37.1562 28.1792 37.0585 28.2738 36.95 28.3585C36.8439 28.4438 36.7285 28.5215 36.6015 28.5831C36.6331 28.3038 36.6746 28.0546 36.7085 27.8108C36.7446 27.5685 36.7731 27.3346 36.8 27.1092C36.8269 26.8838 36.8415 26.6646 36.8562 26.4515C36.8562 26.3977 36.8592 26.3454 36.8608 26.2923C36.8615 26.2662 36.8646 26.24 36.8646 26.2131L36.8639 26.1346L36.8654 25.9785L36.8592 25.8238L36.8585 25.7462C36.8577 25.7208 36.8531 25.6954 36.8515 25.6692C36.8477 25.6177 36.8431 25.5669 36.8408 25.5154C36.8392 25.4638 36.8277 25.4138 36.8239 25.3623L36.8162 25.2854C36.8116 25.2608 36.8077 25.2346 36.8039 25.21C36.7754 25.0062 36.7354 24.8031 36.6785 24.5962C36.6223 24.3892 36.5539 24.1769 36.4639 23.9585C36.4192 23.8492 36.3708 23.7369 36.3177 23.6223C36.2646 23.5069 36.2062 23.3908 36.1439 23.2638Z" fill="#474B4C"/>
<path d="M17.5339 24.3915C17.8746 22.3492 18.4162 23.1285 18.0539 22.7731C17.8723 22.5954 22.8739 16.57 25.59 25.4985C26.1216 27.2462 27.8331 28.8523 28.2946 28.6438C28.6762 28.4715 29.0877 27.5177 28.9854 26.3723C28.8546 24.91 30.6569 25.5869 31.0177 26.2115C32.0654 28.0238 32.0023 27.3362 35.2454 27.6346C35.4516 27.6538 35.44 29.1831 33.4016 29.3354C32.9508 29.3692 31.3393 28.8015 30.3669 28.9354C28.5254 29.1885 28.0285 30.1369 26.6862 30.7069C26.0477 30.9777 26.0493 31.0769 25.1877 29.5185C24.2377 27.8 20.0239 29.2477 18.6377 29.4838C17.6746 29.6477 17.2431 26.1385 17.5339 24.3915Z" fill="#474B4C"/>
<path d="M33.4954 27.7931C34.2654 28.49 35.8969 29.1269 36.6023 28.5823C37.96 27.5331 36.3185 22.8762 35.5423 23.7431C35.1685 24.1608 34.8577 24.5992 34.4292 25.8508C34.06 26.9269 33.1462 27.4769 33.4954 27.7931Z" fill="#E53745"/>
<path d="M33.6462 27.6262C33.8485 27.7962 34.0831 27.9369 34.3231 28.0638C34.5654 28.1877 34.8177 28.2938 35.0739 28.3746C35.33 28.4554 35.5931 28.5115 35.8431 28.5185C36.0931 28.5246 36.3262 28.4769 36.4692 28.3454C36.6262 28.2092 36.7308 27.9862 36.7862 27.7385C36.8446 27.4908 36.8546 27.2208 36.8415 26.9515C36.8277 26.6808 36.7846 26.4092 36.7323 26.14C36.68 25.87 36.6185 25.6008 36.5454 25.3346C36.4746 25.0677 36.3869 24.8054 36.2877 24.5508C36.2377 24.4238 36.1792 24.3015 36.1162 24.1846C36.0539 24.0685 35.9823 23.9569 35.9015 23.8738C35.8615 23.8331 35.8192 23.8015 35.7839 23.7869C35.7485 23.7746 35.7223 23.7692 35.6831 23.7877C35.6631 23.7985 35.6454 23.81 35.6208 23.8323L35.5439 23.9062C35.4939 23.9554 35.4446 24.0062 35.3962 24.0577C35.2023 24.2623 35.0439 24.5008 34.9015 24.7492C34.7631 25 34.6477 25.2638 34.5431 25.5323C34.4915 25.6669 34.4446 25.8023 34.3969 25.9385C34.3477 26.0738 34.2939 26.2077 34.2354 26.3408C34.1192 26.6062 33.9877 26.8738 33.8485 27.13C33.7792 27.2562 33.7085 27.3846 33.6615 27.4969C33.6392 27.5508 33.6239 27.6069 33.6292 27.6238C33.63 27.6346 33.6354 27.6285 33.6346 27.6254C33.6339 27.6185 33.64 27.62 33.6462 27.6262ZM33.3439 27.96C33.3 27.9146 33.2554 27.8623 33.2292 27.7892C33.2031 27.72 33.1962 27.64 33.2069 27.5792C33.2269 27.4523 33.2777 27.3762 33.3239 27.3046C33.4192 27.1669 33.5246 27.0669 33.6269 26.9615C33.8331 26.7585 34.0392 26.5577 34.1969 26.3169C34.2762 26.1977 34.3439 26.07 34.3962 25.9362C34.4485 25.8023 34.4892 25.6638 34.54 25.5292C34.6346 25.2577 34.7346 24.9877 34.8462 24.7208C34.9569 24.4531 35.09 24.1915 35.2523 23.9438C35.2931 23.8823 35.3354 23.8215 35.3785 23.7623L35.4439 23.6738C35.4677 23.6431 35.5015 23.6046 35.5415 23.5738C35.6208 23.5085 35.7477 23.48 35.8523 23.5008C35.9577 23.52 36.0392 23.5677 36.1108 23.6169C36.3869 23.8231 36.5531 24.0831 36.7069 24.3446C36.8592 24.6069 36.9785 24.8838 37.0808 25.1646C37.1808 25.4469 37.2592 25.7362 37.3115 26.0323C37.3639 26.3277 37.3908 26.6292 37.3962 26.9331C37.4008 27.2377 37.38 27.5469 37.3085 27.8608C37.2715 28.0169 37.2192 28.1746 37.1415 28.3269C37.0623 28.4785 36.9585 28.6269 36.8185 28.7469C36.7515 28.8077 36.6669 28.8615 36.5854 28.9046C36.5023 28.9454 36.4169 28.9785 36.3315 29C36.1608 29.0446 35.9923 29.0577 35.83 29.0546C35.5046 29.0469 35.2 28.9762 34.9092 28.8808C34.6192 28.7831 34.3423 28.6569 34.08 28.5054C33.8177 28.3538 33.5708 28.1746 33.3439 27.96Z" fill="#1D1D1B"/>
<path d="M22.2715 20.8215C21.0692 19.5069 19.0777 22.3608 19.0777 24.9769C19.0777 26.1577 19.0569 28.8346 21.3377 29.6608C23.0708 30.2885 28.0985 29.27 26.8954 27.4085C24.3969 23.5423 23.8177 22.5115 22.2715 20.8215Z" fill="#E53745"/>
<path d="M22.2054 20.8815C22.1077 20.7946 22.0062 20.7115 21.89 20.6685C21.7754 20.6246 21.6546 20.6092 21.5354 20.6223C21.4154 20.6392 21.2992 20.6846 21.1885 20.7431C21.0792 20.8069 20.9738 20.8815 20.8785 20.9708C20.6838 21.1446 20.5162 21.3554 20.3685 21.5792C20.2208 21.8031 20.0931 22.0423 19.9815 22.2877C19.7592 22.7808 19.6085 23.3038 19.5069 23.83C19.4569 24.0931 19.4246 24.3585 19.4085 24.6238C19.3985 24.7577 19.4008 24.8854 19.4 25.0231C19.4015 25.1631 19.4038 25.3015 19.4077 25.4392C19.4238 25.9877 19.4762 26.5269 19.6023 27.04C19.7308 27.55 19.9269 28.0369 20.2346 28.4277C20.5385 28.8215 20.9469 29.1146 21.4177 29.2862C21.6354 29.3708 21.8831 29.4123 22.1423 29.4377C22.4008 29.4608 22.6669 29.4715 22.9354 29.4677C23.4715 29.4646 24.0154 29.4069 24.5462 29.3031C25.0754 29.1992 25.6031 29.0538 26.0685 28.8192C26.2977 28.7008 26.5162 28.5608 26.6692 28.3885C26.8269 28.2177 26.9008 28.0192 26.8569 27.8008C26.8438 27.7469 26.8277 27.6915 26.8038 27.6369C26.7915 27.61 26.78 27.5823 26.7646 27.5554C26.7508 27.5292 26.7362 27.5015 26.7169 27.47L26.5008 27.1069L26.0692 26.3808C25.4923 25.4138 24.9362 24.4346 24.3285 23.4885C24.0238 23.0162 23.7054 22.5523 23.3608 22.1077C23.1908 21.8838 23.0115 21.6669 22.8115 21.4677C22.7115 21.3685 22.6092 21.2715 22.5077 21.1738C22.4062 21.0785 22.3054 20.9808 22.2054 20.8815ZM22.3377 20.7608C22.4262 20.8708 22.5138 20.9815 22.5985 21.0946L22.8477 21.4377C23.0115 21.6685 23.1892 21.8854 23.3631 22.1062C23.7092 22.5492 24.0392 23.0054 24.3638 23.4646L26.3008 26.2315L26.7831 26.9238L27.0246 27.27C27.1092 27.3892 27.1962 27.5369 27.2438 27.6985C27.29 27.8615 27.3069 28.0469 27.2654 28.2208C27.2285 28.3962 27.1469 28.5538 27.0492 28.6877C26.8508 28.9569 26.5962 29.1431 26.3369 29.2992C26.0762 29.4546 25.8054 29.5769 25.53 29.6823C25.2546 29.7869 24.9746 29.8754 24.6915 29.9462C24.1246 30.0877 23.5477 30.1785 22.96 30.2131C22.6662 30.2277 22.3685 30.2277 22.0677 30.1962C21.9169 30.1808 21.7654 30.1585 21.6115 30.1262C21.5346 30.1092 21.4577 30.0915 21.3792 30.0685C21.3031 30.0462 21.2185 30.0185 21.1492 29.9885C20.8585 29.8762 20.5777 29.7246 20.3246 29.5346C20.0708 29.3446 19.8454 29.1169 19.6569 28.8662C19.2769 28.3623 19.0538 27.7769 18.9238 27.1962C18.7954 26.6123 18.7554 26.0238 18.7523 25.4485C18.7515 25.3046 18.7531 25.1615 18.7546 25.0208C18.7585 24.8769 18.7608 24.7238 18.7754 24.5769C18.7992 24.2808 18.8446 23.9877 18.9115 23.7008C18.9792 23.4138 19.0677 23.1331 19.1754 22.8608C19.2823 22.5877 19.4046 22.3215 19.5477 22.0662C19.6908 21.8108 19.8508 21.5638 20.0331 21.3323C20.2162 21.1023 20.4192 20.8823 20.6631 20.7031L20.7554 20.6369C20.7862 20.6154 20.8208 20.5969 20.8531 20.5769C20.9162 20.5354 20.9885 20.5038 21.0577 20.47C21.2015 20.4108 21.3562 20.3669 21.5177 20.3608C21.68 20.3577 21.8423 20.3954 21.9831 20.4669C22.1262 20.5408 22.2369 20.6508 22.3377 20.7608Z" fill="#1D1D1B"/>
<path d="M19.0569 20.9169C19.1469 20.7631 19.2562 20.6223 19.3793 20.4931C19.5016 20.3631 19.6393 20.2454 19.7908 20.1423C20.0916 19.9346 20.4546 19.7862 20.8508 19.7477C20.9 19.7415 20.95 19.7415 20.9993 19.7392C21.0493 19.7377 21.0993 19.7369 21.1493 19.7423L21.3 19.7531C21.3508 19.7608 21.4008 19.7669 21.4531 19.78C21.6623 19.8231 21.8654 19.91 22.0369 20.0138C22.3785 20.2254 22.6408 20.48 22.8823 20.74C23.3646 21.2615 23.7639 21.8146 24.1493 22.3846C24.5323 22.9554 24.8723 23.5562 25.1954 24.1469C25.3577 24.4415 25.5177 24.7346 25.6846 25.0208C25.8523 25.3062 26.0246 25.5877 26.2054 25.8638C26.3893 26.1377 26.5785 26.4092 26.7762 26.6738C26.9716 26.9408 27.1808 27.1938 27.4023 27.4292C27.5123 27.5469 27.6254 27.6608 27.7385 27.7646C27.8508 27.8723 27.9677 27.9654 28.0731 28.0415L28.1123 28.0692L28.1485 28.09C28.1746 28.1062 28.1908 28.1123 28.21 28.1238C28.2162 28.1254 28.2216 28.1277 28.2277 28.1308C28.2308 28.1315 28.2308 28.1315 28.2308 28.1338C28.2269 28.1315 28.1985 28.1392 28.2062 28.1377C28.2185 28.1369 28.2416 28.1354 28.2769 28.1123C28.3116 28.09 28.3546 28.0538 28.3993 28.0077C28.4885 27.9138 28.5754 27.7846 28.6446 27.6431C28.7154 27.5015 28.7739 27.3485 28.8285 27.1923C28.9354 26.8785 29.0177 26.55 29.0869 26.2162C29.1323 26.5546 29.1539 26.8977 29.1485 27.2477C29.1446 27.4231 29.1346 27.5992 29.1093 27.7808C29.0831 27.9615 29.0516 28.1492 28.97 28.3469C28.9277 28.4454 28.8708 28.5454 28.7854 28.6415C28.7008 28.7362 28.5777 28.8277 28.4293 28.8754L28.4016 28.8846L28.3685 28.8931C28.3469 28.8985 28.3231 28.9023 28.2977 28.9054C28.2469 28.9123 28.2023 28.91 28.1554 28.9085C28.1146 28.9038 28.0723 28.8977 28.0346 28.8885C28 28.8792 27.9662 28.8692 27.9316 28.8577C27.8739 28.8338 27.8116 28.81 27.7662 28.7815L27.6923 28.74L27.6277 28.6969L27.5631 28.6531L27.5046 28.6077C27.4662 28.5769 27.4269 28.5462 27.3931 28.5146L27.2885 28.42C27.2554 28.3885 27.2239 28.3554 27.1923 28.3223C27.0646 28.1923 26.9493 28.0577 26.8385 27.9223C26.4008 27.3754 25.99 26.8354 25.6046 26.2669C25.4123 25.9831 25.2246 25.6954 25.0454 25.4046C24.8669 25.1131 24.6931 24.8215 24.5223 24.5323C24.1808 23.9531 23.8377 23.3923 23.4608 22.8523C23.0854 22.3131 22.6923 21.7738 22.2739 21.2946C22.0631 21.0592 21.8431 20.8338 21.6169 20.6808C21.5039 20.6038 21.3962 20.5515 21.2769 20.5185C21.2177 20.5008 21.15 20.49 21.0823 20.48C21.0485 20.4731 21.0146 20.4708 20.98 20.4692C20.9454 20.4677 20.9116 20.4608 20.8769 20.4615C20.5993 20.4523 20.3039 20.4962 20 20.5831C19.6962 20.6623 19.39 20.79 19.0569 20.9169Z" fill="#1D1D1B"/>
<path d="M31.2439 26.8169C31.4839 27.1369 31.7139 27.4562 31.9831 27.69C32.1162 27.8054 32.2616 27.8854 32.3954 27.9085C32.4123 27.9146 32.4285 27.9108 32.4446 27.9123C32.4608 27.9123 32.4769 27.9169 32.4931 27.9138C32.5254 27.9062 32.5569 27.9108 32.5893 27.8969C32.6054 27.8923 32.6208 27.8877 32.6369 27.8838C32.6531 27.8785 32.6693 27.8685 32.6854 27.8615C32.7016 27.8531 32.7177 27.8492 32.7339 27.8377L32.7823 27.8069C32.9116 27.7223 33.0362 27.5923 33.15 27.45C33.2646 27.3062 33.3723 27.1492 33.4723 26.9846C33.6731 26.6562 33.8639 26.3046 34.0369 25.95C34.21 25.6 34.3539 25.24 34.5093 24.88C34.5869 24.6992 34.6669 24.5185 34.7577 24.3331C34.8508 24.1492 34.95 23.9585 35.0893 23.7731C35.2262 23.5877 35.4146 23.4177 35.6223 23.3108C35.8277 23.2008 36.0516 23.1392 36.2716 23.1208C36.7139 23.0846 37.1285 23.1992 37.49 23.3808C37.0862 23.3531 36.6862 23.3592 36.3416 23.4785C36.1693 23.5338 36.0139 23.6185 35.8831 23.7223C35.7516 23.8262 35.6554 23.9477 35.5731 24.0954C35.4916 24.2431 35.4223 24.4154 35.3523 24.5954C35.2823 24.7746 35.21 24.9631 35.1277 25.1477C34.9654 25.52 34.7654 25.8808 34.5554 26.2315L34.2446 26.75C34.1431 26.9238 34.0362 27.0985 33.9239 27.2708C33.8108 27.4431 33.6908 27.6146 33.5531 27.7808C33.4146 27.9454 33.2585 28.1085 33.0493 28.2362C32.9962 28.2677 32.9431 28.2977 32.8816 28.32C32.8516 28.3315 32.8223 28.3446 32.7916 28.3546L32.6946 28.3777L32.6462 28.3885C32.6293 28.3908 32.6123 28.3908 32.5954 28.3923L32.4939 28.3969C32.46 28.3985 32.4269 28.3908 32.3939 28.3877C32.3608 28.3823 32.3262 28.3815 32.2954 28.3708C32.2331 28.3523 32.1685 28.3362 32.1131 28.3061C32.0846 28.2923 32.0554 28.2792 32.0285 28.2646L31.9516 28.2154C31.8508 28.1485 31.7654 28.0715 31.6885 27.99C31.5377 27.8254 31.4216 27.6446 31.3293 27.4562C31.2362 27.2685 31.1646 27.0738 31.1169 26.8731L31.2439 26.8169Z" fill="#1D1D1B"/>
<path d="M29.4185 36.5454C29.8293 36.1846 30.4677 35.6992 31.3377 35.3092C32.1085 34.9638 33.1746 34.4854 34.4777 34.6908C36.1246 34.9508 37.1323 36.1431 37.4431 36.5454C37.4377 37.0062 37.3631 37.9031 36.8323 38.8408C36.0177 40.2808 34.6954 40.8169 34.3031 40.96C33.6646 40.7915 32.3669 40.3546 31.1631 39.1938C30.1439 38.2115 29.6493 37.1508 29.4185 36.5454Z" fill="#1D1D1B" stroke="#1D1D1B" stroke-width="0.384615" stroke-miterlimit="10"/>
<path d="M16.2816 30.8654C17.2277 30.0515 18.6677 29.1831 20.4392 28.8731C23.0354 28.4192 25.2708 29.3438 25.9239 30.6838" fill="#7591A0"/>
<path d="M16.2816 30.8654C16.8416 30.1315 17.59 29.5462 18.4192 29.1069C19.2516 28.6708 20.1816 28.3977 21.1331 28.32C22.0831 28.2438 23.0616 28.3654 23.9516 28.7369C24.3939 28.9238 24.8154 29.1731 25.1708 29.4992C25.5223 29.8231 25.8146 30.2331 25.9246 30.6846C25.6331 30.3262 25.2831 30.0677 24.9062 29.8677C24.5292 29.6685 24.1285 29.5269 23.7192 29.4246C22.9 29.2208 22.0492 29.1746 21.2062 29.2408C20.3623 29.3092 19.5254 29.49 18.7069 29.7715C17.8854 30.0508 17.0892 30.4277 16.2816 30.8654Z" fill="#1D1D1B"/>
<path d="M33.4008 29.3354C33.9069 28.9285 34.6716 28.45 35.6277 28.3392C36.9431 28.1869 37.9846 28.8046 38.5646 29.2446" fill="#7591A0"/>
<path d="M33.4008 29.3354C33.7062 28.9677 34.0931 28.6646 34.5308 28.4438C34.9685 28.2246 35.4616 28.0931 35.9616 28.0869C36.0862 28.0831 36.2108 28.0908 36.3354 28.1C36.4593 28.1162 36.5831 28.1292 36.7039 28.1577C36.9462 28.21 37.1839 28.2854 37.4054 28.3892C37.8508 28.5946 38.2477 28.8854 38.5639 29.2446C38.1323 29.0392 37.7108 28.8538 37.2785 28.7292C37.0631 28.6654 36.8454 28.6192 36.6269 28.5885C36.4085 28.5577 36.1893 28.5408 35.9708 28.5485C35.5323 28.5531 35.0962 28.6369 34.6692 28.7777C34.2416 28.9185 33.8262 29.1177 33.4008 29.3354Z" fill="#1D1D1B"/>
<path d="M30.4269 36.7269C30.5485 36.6454 30.6616 36.5562 30.7777 36.4685C30.8931 36.3792 31.0116 36.2946 31.1316 36.2085C31.3731 36.0415 31.6239 35.8823 31.8892 35.7446C32.4169 35.4646 32.9977 35.26 33.6046 35.16C33.9069 35.1054 34.2192 35.0854 34.5246 35.1315C34.6777 35.1515 34.8285 35.1846 34.9769 35.2223C35.0516 35.2392 35.1254 35.26 35.1985 35.28C35.2723 35.2992 35.3446 35.32 35.4154 35.3446C35.6985 35.4392 35.98 35.5415 36.2485 35.6731C36.5177 35.8023 36.7723 35.9531 37.0108 36.1223C36.7269 36.0477 36.4454 35.9838 36.1639 35.9415C35.8816 35.9 35.6016 35.8715 35.3177 35.8592L35.1077 35.8508C35.0392 35.8469 34.97 35.8469 34.9008 35.8492C34.8323 35.85 34.7639 35.8515 34.6954 35.8569C34.6269 35.86 34.5592 35.8646 34.4916 35.8692C34.2216 35.8908 33.9554 35.89 33.6854 35.8985C33.4154 35.9115 33.1446 35.9415 32.8739 35.9885C32.6039 36.0369 32.3331 36.0992 32.0623 36.1762C31.7931 36.2562 31.5231 36.3438 31.2531 36.4438L30.8454 36.5938C30.71 36.6438 30.5708 36.6954 30.4269 36.7269Z" fill="white"/>
<path d="M36.0046 9.42077C36.2877 9.19385 36.5854 8.98462 36.8931 8.79C37.0469 8.69308 37.2031 8.59923 37.3608 8.50692C37.52 8.41769 37.6808 8.33231 37.8431 8.24846C38.4916 7.91308 39.1739 7.63846 39.8723 7.41769L40.1939 7.31615L40.2308 7.66846C40.3016 8.35231 40.3577 9.03769 40.4139 9.72231C40.4677 10.4077 40.5239 11.0915 40.5608 11.7838C40.5762 12.13 40.5908 12.4815 40.5723 12.8385C40.5646 13.0162 40.5477 13.1946 40.5246 13.3692L40.51 13.4923C40.5046 13.5315 40.5023 13.5731 40.4977 13.6138C40.4908 13.6962 40.4854 13.7808 40.4808 13.8662C40.4716 14.0369 40.4631 14.2123 40.4485 14.3869C40.4316 14.5623 40.4077 14.7377 40.3739 14.9115C40.3093 15.2585 40.1923 15.5954 40.0346 15.9038C40.1085 15.5638 40.1516 15.2262 40.1546 14.8877C40.1585 14.7192 40.1531 14.5508 40.1416 14.3815C40.1331 14.2123 40.1193 14.0431 40.1054 13.87C40.0985 13.7831 40.0923 13.6954 40.0885 13.6062C40.0877 13.5608 40.0839 13.5162 40.0854 13.4692L40.0877 13.3346C40.0931 13.1669 40.0908 13.0008 40.0854 12.8338C40.0731 12.5023 40.0393 12.1662 40.0031 11.8262C39.93 11.1462 39.8585 10.4585 39.8016 9.77154C39.7485 9.08385 39.7046 8.39539 39.6708 7.70692L40.0285 7.95769C39.3423 8.13385 38.6654 8.34769 37.9946 8.59077C37.8269 8.65154 37.6608 8.71615 37.4946 8.78231C37.3277 8.84692 37.1616 8.91385 36.9962 8.98385C36.6639 9.12385 36.3354 9.27077 36.0046 9.42077Z" fill="white"/>
<path d="M23.0785 14.7046C22.96 14.7185 22.8416 14.73 22.7223 14.74C22.6631 14.7446 22.6031 14.75 22.5423 14.7531C22.5116 14.7538 22.4816 14.7554 22.4492 14.7538C22.4162 14.7515 22.3877 14.7546 22.3354 14.7338C22.3277 14.73 22.3208 14.7262 22.3139 14.7215C22.3039 14.7131 22.2931 14.6992 22.2869 14.6862C22.2739 14.6615 22.28 14.6177 22.2862 14.6092C22.2892 14.6015 22.2931 14.5915 22.2962 14.5869L22.3054 14.5731C22.3116 14.5631 22.3169 14.5562 22.3223 14.5492L22.3808 14.4777C22.4162 14.4338 22.4462 14.39 22.4677 14.3454C22.5116 14.2562 22.5192 14.1669 22.4969 14.0762C22.4746 13.9854 22.4231 13.8977 22.36 13.8108L22.1508 13.5231L21.7354 12.9454L20.0808 10.6354L19.2554 9.48077L19.05 9.19154L18.9469 9.04692L18.8454 8.90846C18.7085 8.72538 18.5669 8.54461 18.4192 8.37C18.2716 8.19461 18.1162 8.02615 17.9585 7.86C17.8785 7.77769 17.7985 7.69538 17.7162 7.61538L17.4631 7.37154C17.2939 7.20923 17.1239 7.04846 16.9508 6.89308C16.7785 6.73615 16.6046 6.58308 16.4269 6.43846L16.8192 6.40923C16.5423 6.67615 16.2762 6.95461 16.0169 7.24077C15.7592 7.52769 15.51 7.82385 15.2708 8.12846C15.0331 8.43461 14.7985 8.74538 14.5823 9.07C14.36 9.39154 14.1516 9.72385 13.9462 10.0608C14.07 9.68538 14.2231 9.32 14.39 8.96C14.4762 8.78154 14.5662 8.60461 14.66 8.42923C14.7531 8.25385 14.8516 8.08077 14.9562 7.91077C15.1631 7.57 15.3869 7.23923 15.6277 6.92C15.8669 6.6 16.1246 6.29308 16.3939 5.99615L16.5654 5.80769L16.7862 5.96692C17.1854 6.25461 17.5516 6.56692 17.9116 6.88538L18.1777 7.12846C18.2677 7.21154 18.3562 7.29692 18.4431 7.38308C18.6177 7.55538 18.7831 7.73615 18.9439 7.92231C19.1039 8.10846 19.2585 8.29923 19.4023 8.49846L19.51 8.64769L19.6123 8.79385L19.8169 9.08692C20.0854 9.48 20.3523 9.87384 20.6116 10.2731C21.1316 11.0708 21.6316 11.8815 22.1031 12.7092C22.2223 12.9154 22.3362 13.1246 22.4516 13.3331L22.62 13.6485C22.68 13.7631 22.7362 13.8923 22.75 14.0369C22.7569 14.1092 22.7516 14.1838 22.7339 14.2562C22.7154 14.3285 22.6816 14.3938 22.6408 14.45C22.6 14.5062 22.5523 14.5538 22.5054 14.5954L22.44 14.6515L22.4285 14.6623L22.4239 14.6662C22.4231 14.6669 22.4246 14.6646 22.4246 14.6638C22.4246 14.6623 22.4239 14.6631 22.4262 14.6523C22.4277 14.6438 22.4231 14.6362 22.4208 14.6292C22.4185 14.6215 22.4123 14.6146 22.4062 14.6115C22.4054 14.6108 22.4054 14.61 22.4039 14.61C22.4054 14.6138 22.4377 14.6238 22.4631 14.6285C22.49 14.6338 22.5192 14.6377 22.5477 14.6423C22.6054 14.6508 22.6646 14.6577 22.7231 14.6646L23.0785 14.7046Z" fill="white"/>
<path d="M22.7462 14.7562C23.1869 14.6715 23.6354 14.6323 24.0823 14.6077C24.5292 14.5823 24.9769 14.5677 25.4238 14.5631C25.8708 14.5577 26.3177 14.5538 26.7638 14.5562L28.1008 14.5662C28.9915 14.57 29.88 14.5792 30.7654 14.5662C31.2077 14.5585 31.6492 14.5477 32.0877 14.5246C32.3069 14.5131 32.5254 14.4977 32.7423 14.48L33.0669 14.45L33.2277 14.4308L33.3085 14.4215L33.35 14.4169L33.4185 14.4115C33.5915 14.4054 33.7231 14.4323 33.8523 14.4608C33.9792 14.4908 34.0985 14.5292 34.2131 14.5708C34.4423 14.6562 34.6577 14.7569 34.8662 14.8677C35.2831 15.0877 35.6708 15.3477 36.0377 15.6315C36.7738 16.1962 37.4192 16.8808 37.9108 17.6638C38.1585 18.0538 38.3662 18.4669 38.54 18.8908C38.7154 19.3138 38.8523 19.75 38.96 20.1885C39.1754 21.0669 39.28 21.9569 39.2854 22.8477C39.2846 22.4023 39.2485 21.9562 39.1623 21.5192C39.1423 21.41 39.1154 21.3015 39.0908 21.1938C39.0623 21.0862 39.0346 20.9792 39.0015 20.8731C38.9392 20.66 38.8615 20.4523 38.7777 20.2485C38.4362 19.4315 37.9462 18.6969 37.3946 18.0369C37.1208 17.7038 36.8269 17.3908 36.5238 17.0885C36.22 16.7877 35.9031 16.4992 35.5669 16.2354C35.3985 16.1038 35.2262 15.9785 35.0492 15.8608C34.8731 15.7423 34.6931 15.6308 34.5085 15.53C34.3246 15.4292 34.1369 15.3377 33.95 15.2646C33.8569 15.2277 33.7638 15.1954 33.6746 15.1715C33.5877 15.1477 33.4977 15.1338 33.4477 15.1338C33.4431 15.1346 33.4377 15.1346 33.4331 15.1338L33.3915 15.1377L33.3062 15.1462L33.1346 15.1623L32.7931 15.1862C32.5662 15.1992 32.3392 15.2069 32.1131 15.2115C31.6608 15.2208 31.2108 15.2192 30.7623 15.2069C30.3138 15.1954 29.8662 15.1785 29.4192 15.1538C28.9723 15.1308 28.5269 15.1038 28.0815 15.0715L25.4154 14.8785C24.9715 14.85 24.5277 14.8185 24.0838 14.7992C23.8615 14.7892 23.64 14.7846 23.4177 14.7792C23.1962 14.7777 22.9738 14.7808 22.7515 14.7938L22.7462 14.7562Z" fill="white"/>
<path d="M34.2592 29.5885C34.6831 30.3023 35.1408 30.9731 35.6723 31.5669C35.8039 31.7154 35.9408 31.8531 36.0854 31.9846C36.2292 32.1154 36.3869 32.2462 36.5454 32.3962C36.7046 32.5446 36.8508 32.7115 36.9854 32.8808C37.0516 32.9662 37.1154 33.0523 37.1762 33.1362C37.2377 33.2215 37.2992 33.3085 37.3585 33.3977C37.8354 34.1077 38.1654 34.9377 38.2646 35.7915C38.3685 36.6431 38.2539 37.5115 37.9316 38.2785C38.0039 37.4515 37.9723 36.6423 37.7877 35.8754C37.61 35.1069 37.2816 34.3923 36.8454 33.7377C36.7916 33.6554 36.7354 33.5738 36.6785 33.4915C36.6208 33.4077 36.5616 33.3292 36.5046 33.2508C36.3892 33.0938 36.2669 32.9492 36.1339 32.8085C36.0023 32.6677 35.8508 32.5277 35.7039 32.3685C35.5562 32.2115 35.4192 32.0415 35.2962 31.8677C34.8054 31.1738 34.4477 30.3985 34.2592 29.5885Z" fill="white"/>
<path d="M19.1738 14.3192C19.0085 13.5885 18.8785 12.8746 18.7246 12.1685C18.5738 11.4623 18.4092 10.7662 18.2223 10.0754C18.0385 9.38385 17.8308 8.69923 17.6062 8.01462C17.3831 7.32846 17.1331 6.64846 16.8992 5.93616C17.4123 6.48385 17.8208 7.11616 18.1646 7.78077C18.5038 8.44769 18.7738 9.15154 18.9654 9.87615C19.16 10.6 19.28 11.3431 19.3223 12.0892C19.36 12.8354 19.33 13.5854 19.1738 14.3192Z" fill="white"/>
<path d="M33.8446 22.2685C33.7493 21.6292 33.8808 20.9492 34.1916 20.3523C34.35 20.0523 34.5408 19.7831 34.7623 19.5323C34.9831 19.2815 35.2377 19.0538 35.527 18.8646C35.817 18.6777 36.1454 18.5292 36.5 18.4692C36.677 18.4385 36.8577 18.4315 37.0362 18.4462C37.1254 18.4531 37.2131 18.47 37.3 18.4869C37.407 18.5054 37.5085 18.5469 37.5893 18.5946C37.7546 18.69 37.8823 18.8062 37.9977 18.9269C38.1131 19.0469 38.2139 19.1754 38.3093 19.3046C38.4039 19.4346 38.4916 19.5669 38.5762 19.7008C38.6616 19.8338 38.7377 19.9723 38.8293 20.1008C38.7623 20.0569 38.7016 20.0046 38.6408 19.9531C38.58 19.9015 38.5208 19.8485 38.4623 19.7962C38.3446 19.6908 38.2293 19.5862 38.1116 19.4854C37.9946 19.3846 37.8754 19.2892 37.7554 19.2031C37.6354 19.1185 37.5108 19.0438 37.3946 19.0015C37.3354 18.9808 37.2862 18.9708 37.2377 18.9715L37.1346 18.9738C37.1008 18.9746 37.0662 18.9808 37.0331 18.9823C36.8985 18.9954 36.767 19.0246 36.6385 19.0631C36.5108 19.1038 36.3846 19.1546 36.2639 19.2192C36.1416 19.2808 36.0239 19.3546 35.9085 19.4338C35.677 19.5931 35.4608 19.7846 35.2539 19.9908C35.0508 20.1985 34.8493 20.4215 34.677 20.6531C34.5023 20.8862 34.3477 21.1385 34.2108 21.4077C34.0731 21.6785 33.9585 21.9654 33.8446 22.2685Z" fill="white"/>
<path d="M28.7323 23.0177C28.1354 22.4138 27.6415 21.7146 27.2262 20.9708C27.0192 20.5977 26.8346 20.2092 26.6754 19.8131C26.5939 19.6154 26.5231 19.4154 26.4508 19.2177C26.3808 19.0192 26.3146 18.8223 26.2446 18.6308C26.11 18.2446 25.9608 17.8792 25.7823 17.52C25.6031 17.1623 25.4023 16.8138 25.1777 16.4762C24.7308 15.7985 24.1954 15.1708 23.6331 14.5362C24.3769 14.9431 25.0469 15.4931 25.6115 16.1477C25.8946 16.4746 26.1431 16.8338 26.3615 17.2108C26.4692 17.4008 26.5669 17.5962 26.6577 17.7954C26.7454 17.9954 26.8239 18.1977 26.8962 18.3992C27.0377 18.8031 27.1577 19.1977 27.2892 19.5854C27.4192 19.9738 27.5623 20.3554 27.7154 20.7369C28.0208 21.5008 28.3731 22.25 28.7323 23.0177Z" fill="white"/>
<path d="M16.2815 17.0577C16.3223 16.9192 16.3738 16.7838 16.4284 16.6492C16.4854 16.5162 16.55 16.3846 16.6184 16.2554C16.7554 15.9962 16.9223 15.7515 17.1084 15.5192C17.2954 15.2877 17.5069 15.0746 17.7308 14.8792C17.9554 14.6815 18.2 14.5038 18.4592 14.3469C18.7192 14.1908 18.9946 14.0546 19.2838 13.9477C19.5731 13.8408 19.8761 13.7669 20.1854 13.72C20.8038 13.6338 21.4492 13.6815 22.0477 13.8731L22.2692 13.9515C22.3061 13.9654 22.3431 13.9769 22.3792 13.9923L22.4861 14.04L22.6992 14.1354C22.7684 14.17 22.8361 14.2077 22.9038 14.2446C23.1754 14.3938 23.4277 14.5692 23.6654 14.7592C24.1377 15.1423 24.5438 15.5892 24.8908 16.0623C25.0623 16.2915 25.2346 16.5431 25.3815 16.7992C25.53 17.0562 25.66 17.3223 25.7708 17.5946C25.88 17.8677 25.9723 18.1462 26.04 18.43C26.0746 18.5715 26.1038 18.7138 26.13 18.8562C26.1515 19 26.1731 19.1423 26.1838 19.2862C26.0684 19.0215 25.9508 18.7623 25.8208 18.5115C25.6892 18.2615 25.5515 18.0177 25.4008 17.7838C25.2515 17.5492 25.0908 17.3246 24.9208 17.1092C24.8792 17.0546 24.8346 17.0023 24.7908 16.95C24.7469 16.8977 24.7046 16.8438 24.6577 16.7938L24.5208 16.6408L24.3784 16.4862C24.1892 16.2831 23.9969 16.0892 23.7984 15.9046C23.5961 15.7254 23.3923 15.5492 23.1761 15.3946C23.1238 15.3531 23.0669 15.32 23.0131 15.2815C22.9577 15.2454 22.9054 15.2046 22.8484 15.1723C22.7354 15.1062 22.6246 15.0338 22.5069 14.9792C22.4492 14.95 22.3923 14.9177 22.3338 14.89L22.1561 14.8131L22.0677 14.7746C22.0377 14.7623 22.0069 14.7538 21.9769 14.7431L21.7946 14.6808C21.7346 14.6569 21.6715 14.6469 21.61 14.6292C21.5484 14.6138 21.4869 14.5962 21.4246 14.5815L21.2361 14.5508C21.1731 14.5415 21.1108 14.5262 21.0469 14.5238C20.7931 14.4992 20.5369 14.49 20.28 14.5162C20.0238 14.5392 19.7684 14.5885 19.5154 14.6562C19.2638 14.7285 19.0154 14.8208 18.7731 14.9323C18.5308 15.0438 18.2938 15.1738 18.0654 15.3215C17.8361 15.4708 17.6138 15.6292 17.4061 15.8085C17.1961 15.9862 16.9984 16.1815 16.8108 16.39C16.6215 16.5977 16.4477 16.8223 16.2815 17.0577Z" fill="#1D1D1B"/>
<path d="M33.9162 22.4815C33.9685 22.0131 34.0954 21.5508 34.2923 21.1092C34.39 20.8892 34.5116 20.6731 34.6469 20.4708C34.7831 20.2669 34.9392 20.0715 35.1177 19.8923C35.2969 19.7131 35.4985 19.5469 35.7308 19.4131C35.9615 19.2777 36.2254 19.1769 36.5062 19.1323C36.7862 19.0877 37.0823 19.1 37.3569 19.1746C37.6339 19.2469 37.8839 19.3769 38.1069 19.5262C38.5492 19.8354 38.8785 20.2292 39.1508 20.6392C39.2846 20.8462 39.4085 21.0562 39.5154 21.2715C39.57 21.3792 39.6223 21.4862 39.6716 21.5938C39.72 21.7 39.7669 21.81 39.8146 21.9223C39.9969 22.37 40.1316 22.8315 40.2169 23.2992C40.3016 23.7669 40.3446 24.2385 40.3277 24.71C40.0031 23.8285 39.6654 22.9823 39.2177 22.2154C39.1616 22.1208 39.1054 22.0246 39.0446 21.9269C38.9862 21.83 38.9277 21.7346 38.8677 21.6415C38.7469 21.4554 38.6254 21.2731 38.4939 21.1008C38.3631 20.9292 38.2292 20.7631 38.0831 20.6162C37.94 20.4654 37.7877 20.3331 37.6277 20.2231C37.4692 20.1131 37.3031 20.0277 37.1331 19.9785C36.9639 19.9215 36.7885 19.9131 36.6116 19.9262C36.4339 19.9408 36.2546 19.9938 36.0762 20.0723C35.8992 20.1531 35.7246 20.2608 35.5577 20.3885C35.4746 20.4515 35.3923 20.52 35.3123 20.5915C35.2331 20.6638 35.1554 20.7392 35.0785 20.8177C34.9262 20.9762 34.7823 21.1408 34.6485 21.32C34.3777 21.6738 34.1431 22.0685 33.9162 22.4815Z" fill="#1D1D1B"/>
<path d="M21.1023 33.0846C21.2784 33.1454 21.4592 33.1785 21.6423 33.2215C21.8246 33.2662 22.0054 33.3223 22.1831 33.39C22.5392 33.5238 22.8738 33.71 23.1954 33.9108C23.3561 34.0092 23.5146 34.1138 23.6715 34.2238C23.8269 34.3362 23.9785 34.4569 24.1254 34.5854C24.2708 34.7162 24.4085 34.8569 24.5392 35.0038C24.6677 35.1538 24.7869 35.3115 24.8977 35.4754C25.0069 35.64 25.1061 35.8108 25.1946 35.9854C25.2861 36.1585 25.3646 36.3423 25.4354 36.5077L25.8754 37.5208C26.1746 38.19 26.4754 38.8608 26.8284 39.4762C27.0038 39.7831 27.1985 40.0738 27.4138 40.3092C27.5223 40.4246 27.6369 40.5254 27.7577 40.5954C27.7723 40.6046 27.7877 40.6131 27.8031 40.6208L27.8554 40.6485C27.9054 40.6754 27.9577 40.7 28.0046 40.7308C28.1031 40.79 28.1861 40.8546 28.2638 40.9138C28.4131 41.0331 28.5392 41.13 28.6815 41.22C28.8231 41.3092 28.9723 41.3931 29.1315 41.4662C29.4469 41.6185 29.7854 41.7462 30.1277 41.8685C30.2131 41.8985 30.3 41.9308 30.3831 41.9546C30.4669 41.9815 30.5515 42.0038 30.6361 42.0262C30.8069 42.0677 30.9792 42.1031 31.1538 42.1238C31.5031 42.1715 31.8592 42.1731 32.2138 42.1346C32.5684 42.0946 32.9215 42.0108 33.2646 41.89C33.6077 41.7669 33.9392 41.6038 34.2592 41.4146C33.7069 41.9115 33.0223 42.2877 32.2708 42.4638C31.8961 42.5515 31.5061 42.59 31.1169 42.5769C30.9223 42.5723 30.7284 42.5492 30.5354 42.5208C30.3431 42.4915 30.1492 42.4446 29.9684 42.4008C29.6008 42.3131 29.2346 42.2085 28.8692 42.0677C28.6869 41.9985 28.5054 41.9131 28.3269 41.8162C28.1492 41.72 27.9761 41.5962 27.8308 41.4915C27.7592 41.4415 27.6931 41.3962 27.63 41.3631C27.5985 41.3438 27.5661 41.3308 27.5346 41.3146L27.4631 41.2792C27.4369 41.2669 27.4115 41.2531 27.3861 41.2385C27.1838 41.1254 27.0154 40.9808 26.8669 40.8308C26.5731 40.5269 26.3592 40.1931 26.1631 39.86C25.9669 39.5262 25.8008 39.1854 25.64 38.8438C25.48 38.5023 25.3331 38.1577 25.1892 37.8131C25.0454 37.4685 24.91 37.1215 24.7761 36.7746L24.6769 36.5192C24.6461 36.4369 24.6146 36.3554 24.5792 36.2762C24.5123 36.1146 24.4323 35.9608 24.3515 35.8077C24.1846 35.5046 23.9846 35.2208 23.7515 34.9577C23.5192 34.6938 23.2538 34.45 22.9754 34.2115C22.6961 33.98 22.4046 33.7631 22.0915 33.5785C21.9354 33.4854 21.7723 33.4038 21.6038 33.3292C21.4385 33.2515 21.2608 33.1854 21.1023 33.0846Z" fill="#474B4C"/>
<path d="M38.0623 38.6615C38.0523 39.1915 37.9746 39.7131 37.7946 40.22C37.7038 40.4731 37.5892 40.7223 37.4385 40.9615C37.2861 41.2 37.0977 41.4308 36.8477 41.6246C36.6269 41.7931 36.3861 41.9431 36.1123 42.0554C35.84 42.1661 35.5292 42.2377 35.2062 42.2115C35.0454 42.2 34.8854 42.1592 34.7392 42.0977C34.5931 42.0331 34.4623 41.9462 34.3531 41.8462C34.2438 41.7462 34.1561 41.6338 34.0838 41.5238C34.0485 41.4708 34.0123 41.4131 33.9877 41.3785C33.9815 41.37 33.9808 41.3646 33.9831 41.3585C33.9854 41.3508 33.9769 41.3469 33.9662 41.3538C33.9446 41.3662 33.9246 41.3962 33.9054 41.4238C33.8985 41.39 33.89 41.3561 33.9015 41.3146C33.9061 41.2946 33.9215 41.2654 33.9546 41.2508C33.9877 41.2362 34.0192 41.2392 34.0423 41.2423C34.1338 41.2608 34.1915 41.29 34.2554 41.3146C34.3777 41.3654 34.4885 41.41 34.5969 41.44C34.8131 41.5008 35.0046 41.5008 35.1877 41.4631C35.5531 41.3831 35.9262 41.1546 36.2969 40.8885C36.6062 40.6631 36.8977 40.2946 37.1738 39.9023C37.3138 39.7054 37.4515 39.4992 37.5946 39.29C37.6662 39.1854 37.7385 39.0792 37.8154 38.9731C37.8892 38.8685 37.9669 38.7592 38.0623 38.6615Z" fill="#474B4C"/>
<path d="M11.91 31.19C11.81 31.4692 11.5515 31.6777 11.2638 31.7915C11.1915 31.8215 11.1169 31.8431 11.0408 31.8608C10.9646 31.88 10.8885 31.8915 10.8108 31.9C10.6569 31.9154 10.5031 31.9108 10.3531 31.8923C10.2031 31.8738 10.0585 31.8408 9.91846 31.7969C9.77692 31.7477 9.64231 31.6908 9.51615 31.6269C9.26231 31.5 9.03615 31.3492 8.82462 31.1869C8.40308 30.8608 8.04615 30.4815 7.74154 30.0623C7.59 29.8523 7.45385 29.6308 7.33308 29.3977C7.27308 29.2808 7.21692 29.1615 7.16846 29.0369C7.12 28.9123 7.07308 28.7846 7.04846 28.6469C7.54231 28.8754 7.97 29.1308 8.38308 29.3962C8.79308 29.6608 9.17846 29.94 9.55308 30.2023C9.74 30.3331 9.92385 30.4615 10.1031 30.5738C10.1931 30.6308 10.2808 30.6831 10.3662 30.7315C10.4546 30.7831 10.5431 30.8323 10.6323 30.88C10.8108 30.9731 10.9892 31.0592 11.1915 31.12C11.3938 31.18 11.62 31.2177 11.91 31.19Z" fill="#474B4C"/>
<path d="M13.7954 28.4846C13.7792 28.5038 13.7515 28.5046 13.7292 28.5092C13.7054 28.5123 13.6815 28.5146 13.6585 28.5162C13.6115 28.5185 13.5646 28.5177 13.5169 28.5169C13.4231 28.5131 13.33 28.5085 13.2377 28.4992C13.0523 28.4823 12.8685 28.4562 12.6854 28.4277C12.32 28.3662 11.9569 28.2908 11.5992 28.1962C11.4192 28.1508 11.2415 28.0992 11.0639 28.0446C10.8854 27.9915 10.7092 27.9323 10.5331 27.8685C10.3569 27.8062 10.1808 27.7392 10.0062 27.6654C9.91847 27.6292 9.83155 27.59 9.74463 27.55C9.65693 27.5108 9.57386 27.4669 9.4777 27.4269C9.10309 27.2638 8.76001 27.0308 8.46386 26.7562C8.16693 26.4808 7.91463 26.1654 7.71463 25.8277C7.51386 25.49 7.36078 25.1308 7.25924 24.7608C7.20693 24.5769 7.1677 24.39 7.1377 24.2023C7.12232 24.1085 7.11001 24.0146 7.09847 23.9208C7.08463 23.8269 7.07847 23.7338 7.05078 23.6362C7.14924 23.6692 7.23617 23.7338 7.31463 23.7946C7.39386 23.8569 7.4677 23.9223 7.5377 23.9885C7.67847 24.1208 7.80847 24.2538 7.93232 24.3869C8.18232 24.6508 8.41001 24.91 8.6354 25.1577C9.08616 25.6546 9.52309 26.1008 10.0231 26.5085C10.0816 26.5623 10.1569 26.6062 10.2292 26.6531L10.45 26.7892C10.5992 26.8785 10.7508 26.9677 10.9039 27.0546L11.37 27.3115L11.8439 27.5631C12.1623 27.7277 12.4823 27.8946 12.8069 28.0546C12.9685 28.1362 13.1315 28.2154 13.2954 28.2938C13.3777 28.3323 13.46 28.3715 13.5431 28.4069C13.5846 28.4254 13.6262 28.4431 13.6685 28.4585C13.69 28.4662 13.7108 28.4746 13.7323 28.4808C13.7516 28.4846 13.7754 28.4946 13.7954 28.4846Z" fill="#474B4C"/>
<path d="M18.0908 29.7392C17.8 29.85 17.4715 29.8454 17.1577 29.7738C17.0784 29.7562 17.0031 29.7292 16.9246 29.7046C16.8492 29.6754 16.7723 29.6446 16.7 29.6077C16.5523 29.5369 16.4123 29.4485 16.2823 29.3492C16.0223 29.15 15.7969 28.9069 15.62 28.6408C15.5708 28.5762 15.5338 28.5069 15.4931 28.4385C15.4531 28.37 15.4146 28.3 15.3761 28.2308C15.3123 28.0877 15.2408 27.9446 15.1923 27.7977C14.9831 27.2092 14.9046 26.5946 14.9484 25.9985C14.9677 25.7 15.0192 25.4054 15.0992 25.1185C15.14 24.9746 15.1877 24.8331 15.2461 24.6946C15.3038 24.5562 15.3692 24.4192 15.4538 24.2892C15.65 24.8692 15.7715 25.4015 15.9138 25.9169C16.0469 26.4308 16.1861 26.9192 16.35 27.3808C16.3677 27.44 16.3915 27.4962 16.4138 27.5515C16.4354 27.6085 16.4577 27.6646 16.4784 27.7215C16.5023 27.7769 16.5284 27.83 16.5515 27.8862C16.5754 27.9415 16.5969 27.9985 16.6246 28.05C16.7238 28.2685 16.8392 28.4723 16.9684 28.6708C17.23 29.0685 17.5638 29.4285 18.0908 29.7392Z" fill="#474B4C"/>
<path d="M30.2908 35.46C30 35.5708 29.6715 35.5662 29.3577 35.4946C29.2785 35.4769 29.2031 35.45 29.1246 35.4254C29.0492 35.3962 28.9723 35.3654 28.9 35.3285C28.7523 35.2577 28.6123 35.1692 28.4823 35.07C28.2223 34.8708 27.9969 34.6277 27.82 34.3615C27.7708 34.2969 27.7338 34.2277 27.6931 34.1592C27.6531 34.0908 27.6146 34.0208 27.5762 33.9515C27.5123 33.8085 27.4408 33.6654 27.3923 33.5185C27.1831 32.93 27.1046 32.3154 27.1485 31.7192C27.1677 31.4208 27.2192 31.1262 27.2992 30.8392C27.34 30.6954 27.3877 30.5538 27.4462 30.4154C27.5038 30.2769 27.5692 30.14 27.6538 30.01C27.85 30.59 27.9715 31.1223 28.1138 31.6377C28.2469 32.1515 28.3862 32.64 28.55 33.1015C28.5677 33.1608 28.5915 33.2169 28.6138 33.2723C28.6354 33.3292 28.6577 33.3854 28.6785 33.4423C28.7023 33.4977 28.7285 33.5508 28.7515 33.6069C28.7754 33.6623 28.7969 33.7192 28.8246 33.7708C28.9238 33.9892 29.0392 34.1931 29.1685 34.3915C29.43 34.7892 29.7638 35.1492 30.2908 35.46Z" fill="#474B4C"/>
<path d="M65.3537 35L59.527 14.6364H64.2301L67.6009 28.7855H67.7699L71.4886 14.6364H75.5156L79.2244 28.8153H79.4034L82.7741 14.6364H87.4773L81.6506 35H77.4545L73.5767 21.6861H73.4176L69.5497 35H65.3537ZM107.346 24.8182C107.346 27.0388 106.925 28.928 106.083 30.4858C105.248 32.0436 104.108 33.2334 102.663 34.0554C101.225 34.8707 99.6071 35.2784 97.8107 35.2784C96.0011 35.2784 94.377 34.8674 92.9386 34.0455C91.5001 33.2235 90.3633 32.0336 89.5281 30.4759C88.6928 28.9181 88.2752 27.0322 88.2752 24.8182C88.2752 22.5975 88.6928 20.7083 89.5281 19.1506C90.3633 17.5928 91.5001 16.4062 92.9386 15.5909C94.377 14.7689 96.0011 14.358 97.8107 14.358C99.6071 14.358 101.225 14.7689 102.663 15.5909C104.108 16.4062 105.248 17.5928 106.083 19.1506C106.925 20.7083 107.346 22.5975 107.346 24.8182ZM102.981 24.8182C102.981 23.3797 102.766 22.1667 102.335 21.179C101.911 20.1913 101.311 19.4422 100.535 18.9318C99.7596 18.4214 98.8514 18.1662 97.8107 18.1662C96.77 18.1662 95.8619 18.4214 95.0863 18.9318C94.3107 19.4422 93.7075 20.1913 93.2766 21.179C92.8524 22.1667 92.6403 23.3797 92.6403 24.8182C92.6403 26.2566 92.8524 27.4697 93.2766 28.4574C93.7075 29.4451 94.3107 30.1941 95.0863 30.7045C95.8619 31.215 96.77 31.4702 97.8107 31.4702C98.8514 31.4702 99.7596 31.215 100.535 30.7045C101.311 30.1941 101.911 29.4451 102.335 28.4574C102.766 27.4697 102.981 26.2566 102.981 24.8182ZM110.536 35V14.6364H114.841V31.4503H123.571V35H110.536ZM127.914 14.6364L132.836 30.108H133.025L137.956 14.6364H142.729L135.709 35H130.161L123.131 14.6364H127.914ZM143.987 14.6364H148.809L153.453 23.4062H153.652L158.295 14.6364H163.118L155.69 27.8011V35H151.414V27.8011L143.987 14.6364Z" fill="white"/>
</svg>
